<svg id="visual" viewBox="0 0 900 600" width="900" height="600" xmlns="http://www.w3.org/2000/svg" xmlns:xlink="http://www.w3.org/1999/xlink" version="1.1"><rect x="0" y="0" width="900" height="600" fill="#001122"></rect><path d="M0 322L37.5 326.3C75 330.7 150 339.3 225 329.8C300 320.3 375 292.7 450 276.2C525 259.7 600 254.3 675 254.3C750 254.3 825 259.7 862.5 262.3L900 265L900 0L862.5 0C825 0 750 0 675 0C600 0 525 0 450 0C375 0 300 0 225 0C150 0 75 0 37.5 0L0 0Z" fill="#FCAF3C" stroke-linecap="round" stroke-linejoin="miter"></path></svg>